<svg version="1.1" xmlns="http://www.w3.org/2000/svg" xmlns:xlink="http://www.w3.org/1999/xlink" width="364" height="244"><defs><linearGradient id="lKbKcNHctzwQ" x1="0px" x2="32px" y1="0px" y2="0px" gradientUnits="userSpaceOnUse"><stop offset="0" stop-color="#807f7f"/><stop offset="1" stop-color="#807f7f"/></linearGradient></defs><g><rect fill="#000000" stroke="none" x="0" y="0" width="364" height="244"/><g transform="scale(1,1) translate(-138,-94)"><path fill="none" stroke="#807f7f" paint-order="fill stroke markers" d=" M 352 144 L 308 144" stroke-linecap="round" stroke-miterlimit="10" stroke-width="3" stroke-dasharray=""/><path fill="none" stroke="#807f7f" paint-order="fill stroke markers" d=" M 308 156 L 308 132" stroke-linecap="round" stroke-miterlimit="10" stroke-width="3" stroke-dasharray=""/><path fill="none" stroke="#807f7f" paint-order="fill stroke markers" d=" M 256 144 L 300 144" stroke-linecap="round" stroke-miterlimit="10" stroke-width="3" stroke-dasharray=""/><path fill="none" stroke="#807f7f" paint-order="fill stroke markers" d=" M 300 156 L 300 132" stroke-linecap="round" stroke-miterlimit="10" stroke-width="3" stroke-dasharray=""/><text fill="#ffffff" stroke="none" font-family="sans-serif" font-size="12px" font-style="normal" font-weight="normal" text-decoration="normal" x="287" y="130" text-anchor="start" dominant-baseline="alphabetic">101μF</text><path fill="none" stroke="#807f7f" paint-order="fill stroke markers" d=" M 352 144 L 352 184" stroke-linecap="round" stroke-miterlimit="10" stroke-width="3" stroke-dasharray=""/><path fill="none" stroke="#807f7f" paint-order="fill stroke markers" d=" M 352 216 L 352 256" stroke-linecap="round" stroke-miterlimit="10" stroke-width="3" stroke-dasharray=""/><g transform="matrix(0,1,-1,0,352,184)"><rect fill="none" stroke="url(#lKbKcNHctzwQ)" x="0" y="-6" width="32" height="12" stroke-linecap="round" stroke-miterlimit="10" stroke-width="3" stroke-dasharray=""/></g><text fill="#ffffff" stroke="none" font-family="sans-serif" font-size="12px" font-style="normal" font-weight="normal" text-decoration="normal" x="362" y="206" text-anchor="start" dominant-baseline="alphabetic">10</text><path fill="none" stroke="#807f7f" paint-order="fill stroke markers" d=" M 352 256 L 352 288" stroke-linecap="round" stroke-miterlimit="10" stroke-width="3" stroke-dasharray=""/><path fill="none" stroke="#807f7f" paint-order="fill stroke markers" d=" M 362 288 L 342 288" stroke-linecap="round" stroke-miterlimit="10" stroke-width="3" stroke-dasharray=""/><path fill="none" stroke="#807f7f" paint-order="fill stroke markers" d=" M 358 293 L 346 293" stroke-linecap="round" stroke-miterlimit="10" stroke-width="3" stroke-dasharray=""/><path fill="none" stroke="#807f7f" paint-order="fill stroke markers" d=" M 354 298 L 350 298" stroke-linecap="round" stroke-miterlimit="10" stroke-width="3" stroke-dasharray=""/><path fill="none" stroke="#c23d3d" paint-order="fill stroke markers" d=" M 256 144 L 225 144" stroke-linecap="round" stroke-miterlimit="10" stroke-width="3" stroke-dasharray=""/><path fill="none" stroke="#808080" paint-order="fill stroke markers" d=" M 224.66 144 A 16.66 16.66 0 1 1 224.6599916700007 143.98334000277666" stroke-linecap="round" stroke-miterlimit="10" stroke-width="3" stroke-dasharray=""/><path fill="none" stroke="#808080" paint-order="fill stroke markers" d=" M 198 144 L 199 142 L 200 140 L 201 138 L 202 137 L 203 137 L 204 137 L 205 138 L 206 140 L 207 142 L 208 144 L 209 146 L 210 148 L 211 150 L 212 151 L 213 151 L 214 151 L 215 150 L 216 148 L 217 146 L 218 144" stroke-linecap="round" stroke-miterlimit="10" stroke-width="3" stroke-dasharray=""/><text fill="#ffffff" stroke="none" font-family="sans-serif" font-size="12px" font-style="normal" font-weight="normal" text-decoration="normal" x="191" y="125" text-anchor="start" dominant-baseline="alphabetic">500Hz</text><g><g><text fill="#ffffff" stroke="none" font-family="sans-serif" font-size="14px" font-style="normal" font-weight="normal" text-decoration="normal" x="432" y="144" text-anchor="middle" dominant-baseline="central">out</text></g><path fill="none" stroke="#807f7f" paint-order="fill stroke markers" d=" M 352 144 L 415 144" stroke-linecap="round" stroke-miterlimit="10" stroke-width="3" stroke-dasharray=""/></g><path fill="#ffffff" stroke="none" paint-order="stroke fill markers" d=" M 355 144 A 3 3 0 1 1 354.99999999995777 143.99998407846124 Z"/></g></g></svg>